HIERARCHY
ROOT SimulationBone
{
	OFFSET 0.000000 0.000000 0.000000
	CHANNELS 6 Xposition Yposition Zposition Zrotation Yrotation Xrotation 
	JOINT Hips
	{
		OFFSET 0.000000 0.000000 0.000000
		CHANNELS 6 Xposition Yposition Zposition Zrotation Yrotation Xrotation 
		JOINT LeftUpLeg
		{
			OFFSET 0.103456 1.857823 10.548498
			CHANNELS 3 Zrotation Yrotation Xrotation
			JOINT LeftLeg
			{
				OFFSET 43.500000 -0.000019 -0.000002
				CHANNELS 3 Zrotation Yrotation Xrotation
				JOINT LeftFoot
				{
					OFFSET 42.372204 0.000027 -0.000005
					CHANNELS 3 Zrotation Yrotation Xrotation
					JOINT LeftToe
					{
						OFFSET 17.299999 -0.000001 0.000000
						CHANNELS 3 Zrotation Yrotation Xrotation
						End Site
						{
							OFFSET 0.000000 0.000000 0.000000
						}
					}
				}
			}
		}
		JOINT RightUpLeg
		{
			OFFSET 0.103456 1.857824 -10.548502
			CHANNELS 3 Zrotation Yrotation Xrotation
			JOINT RightLeg
			{
				OFFSET 43.500038 -0.000015 0.000017
				CHANNELS 3 Zrotation Yrotation Xrotation
				JOINT RightFoot
				{
					OFFSET 42.372261 -0.000015 0.000015
					CHANNELS 3 Zrotation Yrotation Xrotation
					JOINT RightToe
					{
						OFFSET 17.299984 -0.000007 -0.000002
						CHANNELS 3 Zrotation Yrotation Xrotation
						End Site
						{
							OFFSET 0.000000 0.000000 0.000000
						}
					}
				}
			}
		}
		JOINT Spine
		{
			OFFSET 6.901968 -2.603745 -0.000005
			CHANNELS 3 Zrotation Yrotation Xrotation
			JOINT Spine1
			{
				OFFSET 12.588100 0.000014 0.000013
				CHANNELS 3 Zrotation Yrotation Xrotation
				JOINT Spine2
				{
					OFFSET 12.343204 0.000008 -0.000010
					CHANNELS 3 Zrotation Yrotation Xrotation
					JOINT Neck
					{
						OFFSET 25.832903 0.000002 0.000010
						CHANNELS 3 Zrotation Yrotation Xrotation
						JOINT Head
						{
							OFFSET 11.766598 0.000015 -0.000000
							CHANNELS 3 Zrotation Yrotation Xrotation
							End Site
							{
								OFFSET 0.000000 0.000000 0.000000
							}
						}
					}
					JOINT LeftShoulder
					{
						OFFSET 19.745903 -1.480366 6.000109
						CHANNELS 3 Zrotation Yrotation Xrotation
						JOINT LeftArm
						{
							OFFSET 11.284134 0.000001 -0.000017
							CHANNELS 3 Zrotation Yrotation Xrotation
							JOINT LeftForeArm
							{
								OFFSET 33.000042 0.000010 0.000015
								CHANNELS 3 Zrotation Yrotation Xrotation
								JOINT LeftHand
								{
									OFFSET 25.200022 0.000012 0.000000
									CHANNELS 3 Zrotation Yrotation Xrotation
									End Site
									{
										OFFSET 0.000000 0.000000 0.000000
									}
								}
							}
						}
					}
					JOINT RightShoulder
					{
						OFFSET 19.746094 -1.480373 -6.000069
						CHANNELS 3 Zrotation Yrotation Xrotation
						JOINT RightArm
						{
							OFFSET 11.284146 -0.000006 -0.000018
							CHANNELS 3 Zrotation Yrotation Xrotation
							JOINT RightForeArm
							{
								OFFSET 33.000103 0.000006 0.000016
								CHANNELS 3 Zrotation Yrotation Xrotation
								JOINT RightHand
								{
									OFFSET 25.199755 0.000126 0.000423
									CHANNELS 3 Zrotation Yrotation Xrotation
									End Site
									{
										OFFSET 0.000000 0.000000 0.000000
									}
								}
							}
						}
					}
				}
			}
		}
	}
}
MOTION
Frames: 13
Frame Time: 0.016667
-55.400980 0.000000 238.260545 0.000000 -28.007298 0.000000 1.565518 83.037672 7.190448 96.504333 11.185348 178.095467 139.210476 -16.084679 167.738806 -42.859900 1.213366 13.012848 63.182777 -14.562025 -11.932221 21.454549 0.003088 -0.000000 152.490927 -4.895924 -166.983502 -48.429308 -4.637773 2.455629 82.068833 1.219973 12.363892 21.454557 -0.003107 -0.000018 7.573632 -1.377071 1.351804 5.103522 -2.812032 2.642753 4.785361 -2.795887 2.659683 31.523109 -11.480695 -12.829012 -10.795310 5.249236 -14.632387 -66.851715 -84.860298 -115.391145 46.302255 33.827048 63.275554 -26.849823 -15.944371 1.232853 14.728029 9.680925 10.428261 -48.490953 86.138091 133.584289 -18.194117 -61.242626 -0.240050 -73.988249 3.805183 -1.918290 13.077679 -6.491113 51.006447 
-56.162585 0.000000 237.741569 0.000000 -27.226589 0.000000 1.638247 83.214989 7.502122 96.532217 11.654739 178.125018 139.289263 -16.763898 167.673235 -44.099378 1.568908 12.239961 65.629900 -14.875209 -14.982522 21.454551 0.003096 0.000003 152.844715 -5.433308 -167.344129 -47.089184 -4.324287 3.034120 81.222963 0.947253 12.598512 21.454557 -0.003102 -0.000018 7.542786 -1.396893 1.268064 5.043531 -2.847367 2.475211 4.725320 -2.832230 2.492361 32.246384 -11.275999 -12.866283 -11.055934 5.168630 -14.624156 -64.756711 -84.903671 -117.481770 48.447347 34.078729 65.274771 -26.619686 -15.778944 1.218164 14.841878 11.349049 10.826789 -53.677423 85.768378 128.443376 -16.899738 -61.771088 -1.304470 -76.355893 3.285661 -1.980688 12.823294 -6.534176 50.797028 
-56.876259 0.000000 237.215936 0.000000 -26.482937 0.000000 1.721131 83.357569 7.811788 96.617796 12.135145 178.206468 139.420450 -17.344068 167.996443 -45.924796 1.897099 11.103376 69.369536 -14.688862 -18.447631 21.454552 0.003095 0.000002 153.194824 -5.907015 -167.797931 -45.912813 -3.934369 3.611781 80.356609 0.667039 12.784711 21.454556 -0.003110 -0.000018 7.526924 -1.397085 1.180600 5.013980 -2.843673 2.300673 4.695740 -2.829590 2.317808 32.844801 -11.073186 -12.878167 -11.349594 5.135611 -14.617423 -63.173385 -84.902392 -119.064795 50.656308 34.368674 67.230075 -26.703218 -15.800886 1.221046 14.984532 12.479107 11.215774 -57.663771 85.392797 124.499843 -15.160016 -62.287494 -2.802856 -78.879743 2.732616 -2.046948 12.511990 -6.631538 50.544955 
-57.552153 0.000000 236.699725 0.000000 -25.782122 0.000000 1.792167 83.477692 8.089876 96.714897 12.539795 178.395049 139.507829 -17.820003 168.806541 -48.410812 2.128236 10.500612 72.936755 -14.062388 -19.939518 21.454553 0.003090 -0.000001 153.494799 -6.180491 -168.124765 -44.882330 -3.551331 4.101696 79.505272 0.432210 12.898995 21.454557 -0.003116 -0.000017 7.522680 -1.400280 1.079612 5.007962 -2.845657 2.098669 4.689683 -2.832795 2.115822 33.299289 -10.829518 -12.861520 -11.633594 5.145083 -14.609370 -61.940475 -84.878857 -120.299441 52.872230 34.682480 69.132018 -27.077160 -15.974523 1.238462 15.086602 13.060228 11.519081 -60.983709 84.992839 121.223252 -12.781674 -62.815950 -4.805763 -81.604886 2.084684 -2.122251 12.138449 -6.781029 50.220068 
-58.194889 0.000000 236.191813 0.000000 -25.128970 0.000000 1.830076 83.595268 8.321917 96.769990 12.785372 178.739994 139.496462 -18.172006 170.177368 -51.486931 2.269789 11.101299 75.024522 -13.358041 -17.603792 21.454552 0.003085 -0.000004 153.710468 -6.150422 -168.145097 -43.935212 -3.258522 4.450174 78.697294 0.278133 12.943066 21.454559 -0.003108 -0.000016 7.524366 -1.428838 0.957157 5.014044 -2.897538 1.852519 4.695690 -2.886160 1.869989 33.593833 -10.490703 -12.814898 -11.870200 5.184752 -14.598237 -60.858686 -84.859290 -121.382364 55.021118 35.012882 70.962988 -27.705291 -16.264341 1.267939 15.075337 13.132268 11.674134 -64.047732 84.538437 118.206798 -9.566479 -63.358702 -7.441498 -84.559692 1.332271 -2.204579 11.698341 -6.977703 49.794339 
-58.804239 0.000000 235.677187 0.000000 -24.527494 0.000000 1.816796 83.734367 8.509370 96.735969 12.882612 179.229118 139.525792 -18.284104 172.060894 -54.894407 2.409461 11.837180 76.376779 -12.326403 -13.135728 21.454550 0.003083 -0.000006 153.834820 -5.878098 -167.861188 -42.960424 -3.104132 4.706205 77.852940 0.197171 12.985370 21.454562 -0.003099 -0.000016 7.525140 -1.485624 0.820636 5.018480 -3.005221 1.577056 4.700031 -2.995504 1.595183 33.728689 -10.002711 -12.741989 -12.057478 5.241936 -14.588466 -59.925118 -84.865292 -122.314443 57.013617 35.371069 72.688969 -28.529786 -16.642077 1.306987 14.917058 12.790634 11.651658 -67.112063 84.009649 115.196198 -5.416074 -63.835861 -11.029926 -87.701274 0.739208 -2.296284 11.179433 -7.219939 49.301957 
-59.379625 0.000000 235.142897 0.000000 -23.981346 0.000000 1.735847 83.921573 8.652578 96.574431 12.859259 179.820103 139.803640 -18.056419 174.353272 -58.315584 2.524032 11.398590 77.994491 -10.577511 -8.802169 21.454546 0.003084 -0.000005 153.884620 -5.458004 -167.365638 -41.825834 -3.106801 4.938056 76.871019 0.175070 13.108179 21.454561 -0.003103 -0.000016 7.519109 -1.568761 0.682079 5.009380 -3.165406 1.296563 4.690838 -3.157381 1.315670 33.717382 -9.326652 -12.651961 -12.215536 5.306409 -14.589351 -59.256138 -84.912492 -122.978019 58.766371 35.788251 74.272139 -29.484779 -17.079802 1.352784 14.604382 12.133580 11.446979 -70.280735 83.395641 112.087942 -0.348163 -64.111911 -15.744389 -90.952519 0.531953 -2.421322 10.572020 -7.513529 48.784398 
-59.926197 0.000000 234.584345 0.000000 -23.494602 0.000000 1.583263 84.189377 8.744282 96.280682 12.714585 -179.588196 140.573502 -17.525412 176.866792 -61.369734 2.566907 9.255327 79.856658 -8.093846 -5.813903 21.454545 0.003087 -0.000002 153.933434 -4.958407 -166.924223 -40.365946 -3.192777 5.190347 75.673625 0.208068 13.379489 21.454560 -0.003111 -0.000017 7.505364 -1.676816 0.556645 4.984697 -3.375917 1.041483 4.666056 -3.369429 1.061875 33.608966 -8.484568 -12.568361 -12.416872 5.378210 -14.623739 -59.287554 -84.996084 -122.938299 60.237643 36.342626 75.678755 -30.493939 -17.543399 1.402275 14.183573 11.218891 11.110062 -73.461913 82.723779 108.970468 5.302644 -64.032058 -21.033141 -94.163569 0.519043 -2.569502 9.885570 -7.891671 48.249616 
-60.454195 0.000000 233.999333 0.000000 -23.075290 0.000000 1.367059 84.549747 8.768871 95.864377 12.471974 -179.102090 142.012867 -16.806538 179.460755 -63.693956 2.493786 5.674481 81.629495 -5.178079 -4.696138 21.454547 0.003090 -0.000000 154.035258 -4.456620 -166.791157 -38.469903 -3.288286 5.502392 74.205660 0.294489 13.848179 21.454558 -0.003110 -0.000018 7.484036 -1.800871 0.459722 4.944351 -3.619627 0.843028 4.625600 -3.614332 0.864900 33.454843 -7.528694 -12.518342 -12.738214 5.459683 -14.717349 -60.591637 -85.101457 -121.624872 61.409125 37.111500 76.893237 -31.475398 -17.995784 1.451037 13.710443 10.091510 10.694366 -76.567453 82.036935 105.927179 11.008726 -63.504830 -26.127469 -97.166977 0.469827 -2.703342 9.140480 -8.390186 47.714133 
-60.973998 0.000000 233.384153 0.000000 -22.734425 0.000000 1.116535 84.926651 8.692715 95.354754 12.280903 -178.805811 144.020357 -16.142807 -177.772216 -65.058732 2.290257 3.364161 83.130464 -3.387380 -4.313407 21.454551 0.003091 0.000000 154.126769 -4.089493 -167.007455 -36.280799 -3.403600 5.907651 72.479077 0.419361 14.502759 21.454558 -0.003106 -0.000018 7.454557 -1.901669 0.404437 4.886789 -3.818619 0.729180 4.567947 -3.814008 0.752259 33.282688 -6.570639 -12.531421 -13.220629 5.552604 -14.893216 -63.810238 -85.193134 -118.398817 62.302177 38.120337 77.956158 -32.337291 -18.393563 1.494848 13.228476 8.783962 10.215831 -79.447503 81.399161 103.101733 16.135774 -62.516938 -30.464098 -99.802464 0.399367 -2.813779 8.379314 -9.027072 47.259878 
-61.495299 0.000000 232.736200 0.000000 -22.479303 0.000000 0.860693 85.239573 8.488525 94.777731 12.262366 -178.754230 146.420342 -15.715859 -174.814112 -65.176029 2.092036 4.602973 84.582754 -4.008451 -3.500239 21.454551 0.003089 -0.000000 154.127288 -3.940456 -167.542878 -33.999310 -3.554227 6.416146 70.555400 0.576356 15.327342 21.454557 -0.003106 -0.000018 7.416671 -1.945023 0.396474 4.811107 -3.904745 0.712747 4.492229 -3.900234 0.736349 33.094997 -5.730445 -12.632507 -13.874245 5.657933 -15.168940 -69.374593 -85.215071 -112.831596 62.936075 39.383341 78.921316 -32.988605 -18.694287 1.528289 12.772605 7.340091 9.670210 -82.026375 80.874821 100.564188 20.208730 -61.151716 -33.678377 -101.931403 0.364510 -2.905297 7.648885 -9.813471 46.970019 
-62.026407 0.000000 232.055109 0.000000 -22.313542 0.000000 0.610042 85.478050 8.171566 94.130943 12.300225 -178.883245 149.054889 -15.327805 -172.136340 -63.314507 2.082011 7.525817 87.342641 -5.703933 -2.312646 21.454550 0.003088 -0.000001 153.992911 -3.819597 -168.289017 -31.803737 -3.687450 6.956592 68.629801 0.806079 16.345037 21.454557 -0.003108 -0.000018 7.372401 -1.947436 0.414126 4.721888 -3.910039 0.749485 4.403014 -3.905308 0.773121 32.820673 -5.102212 -12.829962 -14.620715 5.777003 -15.542444 -76.837689 -85.109786 -105.370927 63.287842 40.932903 79.846720 -33.354176 -18.865177 1.547289 12.357152 5.860253 9.014797 -84.252091 80.495220 98.364634 23.208483 -59.649987 -35.707374 -103.496694 0.345999 -2.974690 6.996712 -10.759859 46.867613 
-62.573160 0.000000 231.341305 0.000000 -22.239722 0.000000 0.363931 85.655606 7.778258 93.412939 12.203206 -179.086183 151.646111 -14.686913 -170.246861 -59.168917 2.210217 9.683662 92.205999 -6.845496 -1.094947 21.454549 0.003089 -0.000001 153.725334 -3.462801 -169.147256 -29.793072 -3.775849 7.289948 66.962602 1.238007 17.512314 21.454558 -0.003110 -0.000019 7.327185 -1.943151 0.428966 4.630877 -3.901798 0.780893 4.312013 -3.896877 0.804482 32.371308 -4.750711 -13.122376 -15.364105 5.911440 -16.001962 -85.107829 -84.843680 -97.107566 63.326555 42.803842 80.772631 -33.386438 -18.885643 1.549583 11.993593 4.468511 8.226348 -86.095214 80.275898 96.532335 25.329393 -58.271788 -36.658663 -104.471050 0.314836 -3.016018 6.466328 -11.829172 46.926319 
